<?xml version="1.0" standalone="no"?><!DOCTYPE svg PUBLIC "-//W3C//DTD SVG 1.1//EN" "http://www.w3.org/Graphics/SVG/1.1/DTD/svg11.dtd"><svg t="1747365737809" class="icon" viewBox="0 0 1024 1024" version="1.1" xmlns="http://www.w3.org/2000/svg" p-id="3633" id="mx_n_1747365737811" xmlns:xlink="http://www.w3.org/1999/xlink" width="32" height="32"><path d="M975.7 722.154l-338.886 185.094-25.696 14.684c-15.408 8.936-29.148 9.4-38.912 3.292 0.24 0.148 0.416 0.432 0.656 0.57l-508.91-295.8c-9.66-5.602-15.65-17.582-15.65-34.39-0.194-16.422 5.41-35.164 15.65-52.746 10.048-17.39 23.572-31.492 37.676-39.8l25.696-14.878h0.194l45.982-25.116 292.904-159.784L923.34 568.94l51.972 30.14v22.22l-20.286 11.012 0.194 55.642 20.286 11.786z" fill="#5094FF" p-id="3634"></path><path d="M636.754 907.158l-509-295.8-0.064-22.476 509 295.798z" fill="#8FABFE" p-id="3635"></path><path d="M636.69 884.68l-509-295.798 338.856-185.01 509 295.8z" fill="#5094FF" p-id="3636"></path><path d="M610.982 899.524L101.98 603.724l25.71-14.842 509 295.798zM586.71 901.922l-509-295.798c6.194 3.6 14.78 3.082 24.272-2.398l509 295.798c-9.492 5.48-18.078 5.998-24.272 2.398z" fill="#4C5C75" p-id="3637"></path><path d="M636.468 806.328l-509-295.798-0.064-22.318 509.002 295.8z" fill="#8FABFE" p-id="3638"></path><path d="M975.256 599.052l-338.886 184.9-508.908-295.8 45.982-25.116 292.904-159.784 456.936 265.66z" fill="#5094FF" p-id="3639"></path><path d="M923.284 568.912l-50.042 27.242c-150.508 82.306-333.09 79.794-481.472-6.376L173.444 463.036l292.904-159.784z" fill="#57B3FE" p-id="3640"></path><path d="M636.428 783.982l-21.094 19.432c-14.298 8.308-28.412 23.964-38.652 41.354-10.24 17.582-8.994 34.384-8.994 50.806 0 16.808-4.486 24.618 5.174 30.22l-508.91-295.8c-9.66-5.602-15.65-17.582-15.65-34.39-0.194-16.422 5.41-35.164 15.65-52.746 10.048-17.39 23.572-31.492 37.676-39.8l25.696-14.878z" fill="#4C5C75" p-id="3641"></path><path d="M955.016 616.026L608.15 805.66c-8.51 13.688-18.962 26.106-31.358 36.794V907.8l378.464-207.876z" fill="#F3F1FC" p-id="3642"></path><path d="M636.754 907.158l-0.064-22.478 338.856-185.008 0.064 22.476z" fill="#497BFE" p-id="3643"></path><path d="M636.406 784.012l338.856-185.01 0.062 22.318-338.856 185.008z" fill="#497BFE" p-id="3644"></path><path d="M636.406 784.01l0.064 22.316-25.71 14.844c-9.082 5.244-17.594 14.34-24 25.436-6.546 11.178-10.012 22.988-9.982 33.424 0.062 21.676 15.342 30.384 34.204 19.492l25.71-14.844 0.064 22.476L611.044 922c-29.622 17.102-53.734 3.362-53.83-30.676-0.046-16.376 5.498-35.016 15.666-52.626 10.168-17.45 23.562-31.616 37.814-39.844z" fill="#1D2943" p-id="3645"></path><path d="M705.404 470.406c-36.902 138.916-107.036 87.136-107.036 87.136-3.286 6.376-6.956 11.786-11.012 16.424-4.252 4.636-8.888 8.694-14.104 11.786s-10.82 5.602-17.002 7.342c-6.376 1.74-13.14 2.898-20.482 3.478-29.366 2.124-58.542-38.254-58.542-38.254-35.936 13.138-64.338-3.478-86.17-34.198-7.342-10.24-14.104-22.218-19.706-35.164-27.05-58.928-38.642-138.916-37.676-183.548 1.738-83.272 73.806-110.9 122.686-109.548 48.688 1.16 86.558-10.432 86.558-10.432 1.16-0.194 2.318-0.194 3.478-0.386 2.776-5.712 6.506-11.026 10.432-16.036-6.182-5.602-11.978-9.466-15.65-11.592-10.82 10.432-39.028 33.424-68.396 22.026 0 0-23.378-8.888-40.188-20.288 0 0-16.808-13.716-36.71-13.332 3.286-3.478 78.25-78.248 126.938-40.574 0 0 15.844 13.524 22.22 44.63 3.864 2.512 10.24 6.57 17.196 12.752 11.652-12.524 25.68-21.57 42.312-26.662 3.67-0.966 7.34 1.16 8.308 4.636 0.966 3.67-1.16 7.342-4.638 8.308-19.792 4.774-37.738 17.898-49.654 34.778 29.754-2.606 62.528-2.534 91.194 6.762v-0.192l0.194 0.192c19.128 5.798 34.004 14.878 45.596 26.278 2.318 2.318 4.636 4.636 6.57 7.148 46.562 56.026 26.854 158.428 3.284 246.53z" fill="#E93565" opacity=".5" p-id="3646"></path><path d="M558.962 171.012c-11.108-10.548-21.43-15.59-21.536-15.64l3.62-7.544c0.466 0.22 11.556 5.602 23.686 17.11z" fill="#DBA660" p-id="3647"></path><path d="M545.644 152.736s-35.516 41.244-72.942 26.732c0 0-23.296-8.974-40.098-20.24 0 0-16.612-13.748-36.662-13.366 3.246-3.436 78.288-78.288 126.788-40.672 0 0 16.994 14.32 22.914 47.546z" fill="#72D561" p-id="3648"></path><path d="M545.644 152.736s-35.516 41.244-72.942 26.732c0 0-23.296-8.974-40.098-20.24 0 0-16.804-13.748-36.662-13.366 2.482-1.146 35.134-16.23 74.66-16.23 24.25 0 50.792 5.536 75.042 23.104z" fill="#5EC363" p-id="3649"></path><path d="M705.466 470.472c-37.044 138.82-107.122 87.072-107.122 87.072-12.984 25.396-33.034 36.854-62.63 38.954-29.406 2.292-58.43-38.19-58.43-38.19-35.898 13.176-64.35-3.436-86.308-34.18-7.256-10.31-13.938-22.15-19.668-35.134-26.924-59.004-38.57-139.01-37.616-183.5 1.718-83.444 73.706-110.94 122.588-109.606 48.692 1.146 86.69-10.502 86.69-10.502 33.226-4.2 60.912-4.2 84.018-0.382 8.21 1.336 15.85 3.054 22.914 5.346 109.032 33.992 85.162 168.61 55.564 280.122z" fill="#F45170" p-id="3650"></path><path d="M566.596 227.958c17.212 9.936 17.278 26.044 0.202 35.966-17.076 9.924-44.882 9.938-62.092 0-17.188-9.924-17.254-26.03-0.178-35.952s44.88-9.938 62.068-0.014z" fill="#E93565" p-id="3651"></path><path d="M549.156 244.55c7.508 4.336 7.538 11.362 0.088 15.69-7.45 4.33-19.58 4.336-27.09 0-7.498-4.33-7.528-11.356-0.078-15.686 7.452-4.326 19.582-4.332 27.08-0.004z" fill="#DF3260" p-id="3652"></path><path d="M607.428 149.17c-45.316 10.92-68.752 58.786-68.78 102.564a3.008 3.008 0 0 1-6.002-0.324c-2.54-48.596 22.39-101.222 71.934-115.41a6.74 6.74 0 0 1 8.304 4.686c1.106 3.866-1.506 7.852-5.456 8.484z" fill="#DBA660" p-id="3653"></path><path d="M705.414 470.424c-36.984 138.908-107.108 87.146-107.108 87.146-12.918 25.318-33.052 36.768-62.518 39.016-29.466 2.204-58.502-38.28-58.502-38.28-35.904 13.134-64.42-3.414-86.282-34.132 41.65-0.864 83.906 18.232 126.506 18.146 68.222-0.172 129.142-51.934 154.764-115.188 25.664-63.254 21.042-135.192 3.414-201.124-3.542-13.178-9.202-19.918-19.486-27.738-5.272-4.018-6.956-1.426-6.394-7.994 109.138 34.004 85.288 168.678 55.606 280.148z" fill="#E93565" p-id="3654"></path><path d="M419.65 244.376c6.198 9.154 12.632 17.48 19.712 24.954 7.062 7.466 14.848 13.874 23.352 18.914 8.488 5.024 17.68 9.002 27.652 11.044 4.906 1.514 10.062 1.846 15.286 2.73 5.248 0.756 10.568 0.61 16.172 1.496-5.106 1.952-10.442 3.826-15.946 4.864-5.534 0.588-11.22 1.706-16.924 1.004-20.848-0.556-43.692-12.572-57.582-33.78-6.1-9.544-10.57-20.122-11.722-31.226zM644.246 259.138c-6.786-14.94-15.16-29.142-27.568-39.672-5.912-5.014-12.506-9.31-19.962-12.208-3.6-1.82-7.552-2.76-11.482-4.134-3.966-1.28-8.106-1.868-12.33-3.296 4.214-0.838 8.594-1.584 12.996-1.662 4.364 0.276 8.918 0.16 13.244 1.458 16.078 3.184 32.186 15.512 40.146 33.774 3.464 8.2 5.53 16.986 4.956 25.74z" fill="#FFFFFF" opacity=".5" p-id="3655"></path></svg>